<mxfile host="app.diagrams.net" modified="2020-12-21T07:40:03.040Z" agent="5.0 (Windows NT 10.0; Win64; x64) AppleWebKit/537.36 (KHTML, like Gecko) Chrome/86.0.4240.198 Safari/537.36" etag="s2QX3d1i-LFyDysKPFPA" version="14.1.1" type="github">
  <diagram id="KZVADQ8c4VdHKTxfyuot" name="Page-1">
    <mxGraphModel dx="920" dy="528" grid="1" gridSize="10" guides="1" tooltips="1" connect="1" arrows="1" fold="1" page="1" pageScale="1" pageWidth="827" pageHeight="1169" math="0" shadow="0">
      <root>
        <mxCell id="0" />
        <mxCell id="1" parent="0" />
        <mxCell id="-ht__sh_S9YxHwO8VVMU-161" value="" style="shape=table;startSize=0;container=1;collapsible=0;childLayout=tableLayout;fontSize=6;" vertex="1" parent="1">
          <mxGeometry x="320" y="260" width="80" height="132" as="geometry" />
        </mxCell>
        <mxCell id="-ht__sh_S9YxHwO8VVMU-162" value="" style="shape=partialRectangle;html=1;whiteSpace=wrap;collapsible=0;dropTarget=0;pointerEvents=0;fillColor=none;top=0;left=0;bottom=0;right=0;points=[[0,0.5],[1,0.5]];portConstraint=eastwest;" vertex="1" parent="-ht__sh_S9YxHwO8VVMU-161">
          <mxGeometry width="80" height="22" as="geometry" />
        </mxCell>
        <mxCell id="-ht__sh_S9YxHwO8VVMU-163" value="SG1建立估计值" style="shape=partialRectangle;connectable=0;overflow=hidden;fillColor=#f5f5f5;top=0;left=0;bottom=0;right=0;fontSize=8;fontStyle=1;gradientColor=#b3b3b3;strokeColor=#666666;" vertex="1" parent="-ht__sh_S9YxHwO8VVMU-162">
          <mxGeometry width="80" height="22" as="geometry" />
        </mxCell>
        <mxCell id="-ht__sh_S9YxHwO8VVMU-164" value="" style="shape=partialRectangle;html=1;whiteSpace=wrap;collapsible=0;dropTarget=0;pointerEvents=0;fillColor=none;top=0;left=0;bottom=0;right=0;points=[[0,0.5],[1,0.5]];portConstraint=eastwest;" vertex="1" parent="-ht__sh_S9YxHwO8VVMU-161">
          <mxGeometry y="22" width="80" height="22" as="geometry" />
        </mxCell>
        <mxCell id="-ht__sh_S9YxHwO8VVMU-165" value="SP1.1 估计项目的范围" style="shape=partialRectangle;connectable=0;overflow=hidden;fillColor=none;top=0;left=0;bottom=0;right=0;fontSize=6;" vertex="1" parent="-ht__sh_S9YxHwO8VVMU-164">
          <mxGeometry width="80" height="22" as="geometry" />
        </mxCell>
        <mxCell id="-ht__sh_S9YxHwO8VVMU-1355" value="" style="shape=partialRectangle;html=1;whiteSpace=wrap;collapsible=0;dropTarget=0;pointerEvents=0;fillColor=none;top=0;left=0;bottom=0;right=0;points=[[0,0.5],[1,0.5]];portConstraint=eastwest;" vertex="1" parent="-ht__sh_S9YxHwO8VVMU-161">
          <mxGeometry y="44" width="80" height="22" as="geometry" />
        </mxCell>
        <mxCell id="-ht__sh_S9YxHwO8VVMU-1356" value="SP1.2 建立工作产品和任务&#xa;属性的估计值" style="shape=partialRectangle;connectable=0;overflow=hidden;fillColor=none;top=0;left=0;bottom=0;right=0;fontSize=6;" vertex="1" parent="-ht__sh_S9YxHwO8VVMU-1355">
          <mxGeometry width="80" height="22" as="geometry" />
        </mxCell>
        <mxCell id="-ht__sh_S9YxHwO8VVMU-166" value="" style="shape=partialRectangle;html=1;whiteSpace=wrap;collapsible=0;dropTarget=0;pointerEvents=0;fillColor=none;top=0;left=0;bottom=0;right=0;points=[[0,0.5],[1,0.5]];portConstraint=eastwest;" vertex="1" parent="-ht__sh_S9YxHwO8VVMU-161">
          <mxGeometry y="66" width="80" height="22" as="geometry" />
        </mxCell>
        <mxCell id="-ht__sh_S9YxHwO8VVMU-167" value="SP1.2 建立工作产品和任务&#xa;属性的估计值" style="shape=partialRectangle;connectable=0;overflow=hidden;fillColor=none;top=0;left=0;bottom=0;right=0;fontSize=6;" vertex="1" parent="-ht__sh_S9YxHwO8VVMU-166">
          <mxGeometry width="80" height="22" as="geometry" />
        </mxCell>
        <mxCell id="-ht__sh_S9YxHwO8VVMU-168" value="" style="shape=partialRectangle;html=1;whiteSpace=wrap;collapsible=0;dropTarget=0;pointerEvents=0;fillColor=none;top=0;left=0;bottom=0;right=0;points=[[0,0.5],[1,0.5]];portConstraint=eastwest;" vertex="1" parent="-ht__sh_S9YxHwO8VVMU-161">
          <mxGeometry y="88" width="80" height="22" as="geometry" />
        </mxCell>
        <mxCell id="-ht__sh_S9YxHwO8VVMU-169" value="SP1.3 定义项目生存周期" style="shape=partialRectangle;connectable=0;overflow=hidden;fillColor=none;top=0;left=0;bottom=0;right=0;fontSize=6;" vertex="1" parent="-ht__sh_S9YxHwO8VVMU-168">
          <mxGeometry width="80" height="22" as="geometry" />
        </mxCell>
        <mxCell id="-ht__sh_S9YxHwO8VVMU-170" value="" style="shape=partialRectangle;html=1;whiteSpace=wrap;collapsible=0;dropTarget=0;pointerEvents=0;fillColor=none;top=0;left=0;bottom=0;right=0;points=[[0,0.5],[1,0.5]];portConstraint=eastwest;" vertex="1" parent="-ht__sh_S9YxHwO8VVMU-161">
          <mxGeometry y="110" width="80" height="22" as="geometry" />
        </mxCell>
        <mxCell id="-ht__sh_S9YxHwO8VVMU-171" value="SP1.4建立工作量和成本&#xa;的估计值" style="shape=partialRectangle;connectable=0;overflow=hidden;fillColor=none;top=0;left=0;bottom=0;right=0;fontSize=6;" vertex="1" parent="-ht__sh_S9YxHwO8VVMU-170">
          <mxGeometry width="80" height="22" as="geometry" />
        </mxCell>
        <mxCell id="-ht__sh_S9YxHwO8VVMU-287" value="" style="shape=table;startSize=0;container=1;collapsible=0;childLayout=tableLayout;fontSize=6;swimlaneFillColor=none;rowLines=1;pointerEvents=0;expand=0;" vertex="1" parent="1">
          <mxGeometry x="410" y="260" width="90" height="149" as="geometry" />
        </mxCell>
        <mxCell id="-ht__sh_S9YxHwO8VVMU-288" value="" style="shape=partialRectangle;html=1;whiteSpace=wrap;collapsible=0;dropTarget=0;pointerEvents=0;fillColor=none;top=0;left=0;bottom=0;right=0;points=[[0,0.5],[1,0.5]];portConstraint=eastwest;" vertex="1" parent="-ht__sh_S9YxHwO8VVMU-287">
          <mxGeometry width="90" height="19" as="geometry" />
        </mxCell>
        <mxCell id="-ht__sh_S9YxHwO8VVMU-289" value="SG2制定项目计划" style="shape=partialRectangle;connectable=0;overflow=hidden;fillColor=#f5f5f5;top=0;left=0;bottom=0;right=0;fontSize=8;fontStyle=1;gradientColor=#b3b3b3;strokeColor=#666666;" vertex="1" parent="-ht__sh_S9YxHwO8VVMU-288">
          <mxGeometry width="90" height="19" as="geometry" />
        </mxCell>
        <mxCell id="-ht__sh_S9YxHwO8VVMU-290" value="" style="shape=partialRectangle;html=1;whiteSpace=wrap;collapsible=0;dropTarget=0;pointerEvents=0;fillColor=none;top=0;left=0;bottom=0;right=0;points=[[0,0.5],[1,0.5]];portConstraint=eastwest;" vertex="1" parent="-ht__sh_S9YxHwO8VVMU-287">
          <mxGeometry y="19" width="90" height="18" as="geometry" />
        </mxCell>
        <mxCell id="-ht__sh_S9YxHwO8VVMU-291" value="SP2.1编制预算和进度表" style="shape=partialRectangle;connectable=0;overflow=hidden;fillColor=none;top=0;left=0;bottom=0;right=0;fontSize=6;" vertex="1" parent="-ht__sh_S9YxHwO8VVMU-290">
          <mxGeometry width="90" height="18" as="geometry" />
        </mxCell>
        <mxCell id="-ht__sh_S9YxHwO8VVMU-292" value="" style="shape=partialRectangle;html=1;whiteSpace=wrap;collapsible=0;dropTarget=0;pointerEvents=0;fillColor=none;top=0;left=0;bottom=0;right=0;points=[[0,0.5],[1,0.5]];portConstraint=eastwest;" vertex="1" parent="-ht__sh_S9YxHwO8VVMU-287">
          <mxGeometry y="37" width="90" height="19" as="geometry" />
        </mxCell>
        <mxCell id="-ht__sh_S9YxHwO8VVMU-293" value="SP2.2标识项目风险" style="shape=partialRectangle;connectable=0;overflow=hidden;fillColor=none;top=0;left=0;bottom=0;right=0;fontSize=6;" vertex="1" parent="-ht__sh_S9YxHwO8VVMU-292">
          <mxGeometry width="90" height="19" as="geometry" />
        </mxCell>
        <mxCell id="-ht__sh_S9YxHwO8VVMU-294" value="" style="shape=partialRectangle;html=1;whiteSpace=wrap;collapsible=0;dropTarget=0;pointerEvents=0;fillColor=none;top=0;left=0;bottom=0;right=0;points=[[0,0.5],[1,0.5]];portConstraint=eastwest;" vertex="1" parent="-ht__sh_S9YxHwO8VVMU-287">
          <mxGeometry y="56" width="90" height="18" as="geometry" />
        </mxCell>
        <mxCell id="-ht__sh_S9YxHwO8VVMU-295" value="SP2.3 制定数据管理计划" style="shape=partialRectangle;connectable=0;overflow=hidden;fillColor=none;top=0;left=0;bottom=0;right=0;fontSize=6;" vertex="1" parent="-ht__sh_S9YxHwO8VVMU-294">
          <mxGeometry width="90" height="18" as="geometry" />
        </mxCell>
        <mxCell id="-ht__sh_S9YxHwO8VVMU-296" value="" style="shape=partialRectangle;html=1;whiteSpace=wrap;collapsible=0;dropTarget=0;pointerEvents=0;fillColor=none;top=0;left=0;bottom=0;right=0;points=[[0,0.5],[1,0.5]];portConstraint=eastwest;" vertex="1" parent="-ht__sh_S9YxHwO8VVMU-287">
          <mxGeometry y="74" width="90" height="19" as="geometry" />
        </mxCell>
        <mxCell id="-ht__sh_S9YxHwO8VVMU-297" value="SP2.4 制定项目资源计划" style="shape=partialRectangle;connectable=0;overflow=hidden;fillColor=none;top=0;left=0;bottom=0;right=0;fontSize=6;" vertex="1" parent="-ht__sh_S9YxHwO8VVMU-296">
          <mxGeometry width="90" height="19" as="geometry" />
        </mxCell>
        <mxCell id="-ht__sh_S9YxHwO8VVMU-395" value="" style="shape=partialRectangle;html=1;whiteSpace=wrap;collapsible=0;dropTarget=0;pointerEvents=0;fillColor=none;top=0;left=0;bottom=0;right=0;points=[[0,0.5],[1,0.5]];portConstraint=eastwest;" vertex="1" parent="-ht__sh_S9YxHwO8VVMU-287">
          <mxGeometry y="93" width="90" height="18" as="geometry" />
        </mxCell>
        <mxCell id="-ht__sh_S9YxHwO8VVMU-396" value="SP2.5 策划所需的知识和技能" style="shape=partialRectangle;connectable=0;overflow=hidden;fillColor=none;top=0;left=0;bottom=0;right=0;fontSize=6;" vertex="1" parent="-ht__sh_S9YxHwO8VVMU-395">
          <mxGeometry width="90" height="18" as="geometry" />
        </mxCell>
        <mxCell id="-ht__sh_S9YxHwO8VVMU-453" value="" style="shape=partialRectangle;html=1;whiteSpace=wrap;collapsible=0;dropTarget=0;pointerEvents=0;fillColor=none;top=0;left=0;bottom=0;right=0;points=[[0,0.5],[1,0.5]];portConstraint=eastwest;" vertex="1" parent="-ht__sh_S9YxHwO8VVMU-287">
          <mxGeometry y="111" width="90" height="19" as="geometry" />
        </mxCell>
        <mxCell id="-ht__sh_S9YxHwO8VVMU-454" value="SP2.6 制定利益相关方参与的&#xa;计划" style="shape=partialRectangle;connectable=0;overflow=hidden;fillColor=none;top=0;left=0;bottom=0;right=0;fontSize=6;" vertex="1" parent="-ht__sh_S9YxHwO8VVMU-453">
          <mxGeometry width="90" height="19" as="geometry" />
        </mxCell>
        <mxCell id="-ht__sh_S9YxHwO8VVMU-1357" value="" style="shape=partialRectangle;html=1;whiteSpace=wrap;collapsible=0;dropTarget=0;pointerEvents=0;fillColor=none;top=0;left=0;bottom=0;right=0;points=[[0,0.5],[1,0.5]];portConstraint=eastwest;" vertex="1" parent="-ht__sh_S9YxHwO8VVMU-287">
          <mxGeometry y="130" width="90" height="19" as="geometry" />
        </mxCell>
        <mxCell id="-ht__sh_S9YxHwO8VVMU-1358" value="SP2.7制定项目计划" style="shape=partialRectangle;connectable=0;overflow=hidden;fillColor=none;top=0;left=0;bottom=0;right=0;fontSize=6;" vertex="1" parent="-ht__sh_S9YxHwO8VVMU-1357">
          <mxGeometry width="90" height="19" as="geometry" />
        </mxCell>
        <mxCell id="-ht__sh_S9YxHwO8VVMU-1325" value="" style="endArrow=none;dashed=1;html=1;fontSize=6;strokeWidth=5;" edge="1" parent="1">
          <mxGeometry width="50" height="50" relative="1" as="geometry">
            <mxPoint x="80" y="80" as="sourcePoint" />
            <mxPoint x="830" y="80" as="targetPoint" />
          </mxGeometry>
        </mxCell>
        <mxCell id="-ht__sh_S9YxHwO8VVMU-1326" value="&lt;span style=&quot;color: rgb(0, 0, 0); font-family: helvetica; font-size: 20px; font-style: normal; letter-spacing: normal; text-align: center; text-indent: 0px; text-transform: none; word-spacing: 0px; background-color: rgb(248, 249, 250); display: inline; float: none;&quot;&gt;CMMI活动&lt;/span&gt;" style="text;whiteSpace=wrap;html=1;fontSize=20;fontStyle=1" vertex="1" parent="1">
          <mxGeometry x="140" y="20" width="100" height="40" as="geometry" />
        </mxCell>
        <mxCell id="-ht__sh_S9YxHwO8VVMU-1328" value="" style="endArrow=none;dashed=1;html=1;fontSize=6;strokeWidth=5;" edge="1" parent="1">
          <mxGeometry width="50" height="50" relative="1" as="geometry">
            <mxPoint x="77" y="240.00000000000023" as="sourcePoint" />
            <mxPoint x="827" y="240.00000000000023" as="targetPoint" />
          </mxGeometry>
        </mxCell>
        <mxCell id="-ht__sh_S9YxHwO8VVMU-1329" value="" style="endArrow=none;dashed=1;html=1;fontSize=6;strokeWidth=5;" edge="1" parent="1">
          <mxGeometry width="50" height="50" relative="1" as="geometry">
            <mxPoint x="76.99999999999977" y="440" as="sourcePoint" />
            <mxPoint x="827" y="440" as="targetPoint" />
          </mxGeometry>
        </mxCell>
        <mxCell id="-ht__sh_S9YxHwO8VVMU-1330" value="" style="endArrow=none;dashed=1;html=1;fontSize=6;strokeWidth=5;" edge="1" parent="1">
          <mxGeometry width="50" height="50" relative="1" as="geometry">
            <mxPoint x="76.99999999999977" y="640" as="sourcePoint" />
            <mxPoint x="827" y="640" as="targetPoint" />
          </mxGeometry>
        </mxCell>
        <mxCell id="-ht__sh_S9YxHwO8VVMU-1331" value="" style="endArrow=none;dashed=1;html=1;fontSize=6;strokeWidth=5;" edge="1" parent="1">
          <mxGeometry width="50" height="50" relative="1" as="geometry">
            <mxPoint x="76.99999999999977" y="840" as="sourcePoint" />
            <mxPoint x="827" y="840" as="targetPoint" />
          </mxGeometry>
        </mxCell>
        <mxCell id="-ht__sh_S9YxHwO8VVMU-1332" value="" style="endArrow=none;dashed=1;html=1;fontSize=6;strokeWidth=5;" edge="1" parent="1">
          <mxGeometry width="50" height="50" relative="1" as="geometry">
            <mxPoint x="69.99999999999977" y="1040" as="sourcePoint" />
            <mxPoint x="820" y="1040" as="targetPoint" />
          </mxGeometry>
        </mxCell>
        <mxCell id="-ht__sh_S9YxHwO8VVMU-1333" value="&lt;div style=&quot;text-align: center&quot;&gt;&lt;span&gt;&lt;font face=&quot;helvetica&quot;&gt;专用实践&lt;/font&gt;&lt;/span&gt;&lt;/div&gt;" style="text;whiteSpace=wrap;html=1;fontSize=20;fontStyle=1" vertex="1" parent="1">
          <mxGeometry x="390" y="20" width="100" height="40" as="geometry" />
        </mxCell>
        <mxCell id="-ht__sh_S9YxHwO8VVMU-1334" value="&lt;div style=&quot;text-align: center&quot;&gt;&lt;font face=&quot;helvetica&quot;&gt;共用实践&lt;/font&gt;&lt;/div&gt;" style="text;whiteSpace=wrap;html=1;fontSize=20;fontStyle=1" vertex="1" parent="1">
          <mxGeometry x="640" y="20" width="100" height="40" as="geometry" />
        </mxCell>
        <mxCell id="-ht__sh_S9YxHwO8VVMU-1335" value="" style="endArrow=none;html=1;strokeWidth=5;fontSize=20;" edge="1" parent="1">
          <mxGeometry width="50" height="50" relative="1" as="geometry">
            <mxPoint x="310" y="1160" as="sourcePoint" />
            <mxPoint x="310" y="40" as="targetPoint" />
          </mxGeometry>
        </mxCell>
        <mxCell id="-ht__sh_S9YxHwO8VVMU-1337" value="" style="shape=table;startSize=0;container=1;collapsible=0;childLayout=tableLayout;fontSize=6;swimlaneFillColor=none;rowLines=1;pointerEvents=0;expand=0;treeMoving=1;" vertex="1" parent="1">
          <mxGeometry x="510" y="260" width="90" height="39" as="geometry" />
        </mxCell>
        <mxCell id="-ht__sh_S9YxHwO8VVMU-1338" value="" style="shape=partialRectangle;html=1;whiteSpace=wrap;collapsible=0;dropTarget=0;pointerEvents=0;fillColor=none;top=0;left=0;bottom=0;right=0;points=[[0,0.5],[1,0.5]];portConstraint=eastwest;" vertex="1" parent="-ht__sh_S9YxHwO8VVMU-1337">
          <mxGeometry width="90" height="13" as="geometry" />
        </mxCell>
        <mxCell id="-ht__sh_S9YxHwO8VVMU-1339" value="SG3获得对计划的承诺" style="shape=partialRectangle;connectable=0;overflow=hidden;fillColor=#f5f5f5;top=0;left=0;bottom=0;right=0;fontSize=8;fontStyle=1;gradientColor=#b3b3b3;strokeColor=#666666;" vertex="1" parent="-ht__sh_S9YxHwO8VVMU-1338">
          <mxGeometry width="90" height="13" as="geometry" />
        </mxCell>
        <mxCell id="-ht__sh_S9YxHwO8VVMU-1340" value="" style="shape=partialRectangle;html=1;whiteSpace=wrap;collapsible=0;dropTarget=0;pointerEvents=0;fillColor=none;top=0;left=0;bottom=0;right=0;points=[[0,0.5],[1,0.5]];portConstraint=eastwest;" vertex="1" parent="-ht__sh_S9YxHwO8VVMU-1337">
          <mxGeometry y="13" width="90" height="13" as="geometry" />
        </mxCell>
        <mxCell id="-ht__sh_S9YxHwO8VVMU-1341" value="SP3.1 使工作与资源水平相协调" style="shape=partialRectangle;connectable=0;overflow=hidden;fillColor=none;top=0;left=0;bottom=0;right=0;fontSize=6;" vertex="1" parent="-ht__sh_S9YxHwO8VVMU-1340">
          <mxGeometry width="90" height="13" as="geometry" />
        </mxCell>
        <mxCell id="-ht__sh_S9YxHwO8VVMU-1342" value="" style="shape=partialRectangle;html=1;whiteSpace=wrap;collapsible=0;dropTarget=0;pointerEvents=0;fillColor=none;top=0;left=0;bottom=0;right=0;points=[[0,0.5],[1,0.5]];portConstraint=eastwest;" vertex="1" parent="-ht__sh_S9YxHwO8VVMU-1337">
          <mxGeometry y="26" width="90" height="13" as="geometry" />
        </mxCell>
        <mxCell id="-ht__sh_S9YxHwO8VVMU-1343" value="SP3.2 获得计划承诺" style="shape=partialRectangle;connectable=0;overflow=hidden;fillColor=none;top=0;left=0;bottom=0;right=0;fontSize=6;" vertex="1" parent="-ht__sh_S9YxHwO8VVMU-1342">
          <mxGeometry width="90" height="13" as="geometry" />
        </mxCell>
        <mxCell id="-ht__sh_S9YxHwO8VVMU-1354" value="" style="endArrow=none;html=1;strokeWidth=5;fontSize=20;" edge="1" parent="1">
          <mxGeometry width="50" height="50" relative="1" as="geometry">
            <mxPoint x="610" y="1160" as="sourcePoint" />
            <mxPoint x="610" y="40" as="targetPoint" />
          </mxGeometry>
        </mxCell>
        <mxCell id="-ht__sh_S9YxHwO8VVMU-1359" value="&lt;span style=&quot;color: rgb(0 , 0 , 0) ; font-family: &amp;#34;helvetica&amp;#34; ; font-size: 20px ; font-style: normal ; letter-spacing: normal ; text-align: center ; text-indent: 0px ; text-transform: none ; word-spacing: 0px ; background-color: rgb(248 , 249 , 250) ; display: inline ; float: none&quot;&gt;需求管理&lt;/span&gt;" style="text;whiteSpace=wrap;html=1;fontSize=20;fontStyle=1" vertex="1" parent="1">
          <mxGeometry y="130" width="50" height="60" as="geometry" />
        </mxCell>
        <mxCell id="-ht__sh_S9YxHwO8VVMU-1360" value="&lt;span style=&quot;color: rgb(0 , 0 , 0) ; font-family: &amp;#34;helvetica&amp;#34; ; font-size: 20px ; font-style: normal ; letter-spacing: normal ; text-align: center ; text-indent: 0px ; text-transform: none ; word-spacing: 0px ; background-color: rgb(248 , 249 , 250) ; display: inline ; float: none&quot;&gt;项目策划&lt;/span&gt;" style="text;whiteSpace=wrap;html=1;fontSize=20;fontStyle=1" vertex="1" parent="1">
          <mxGeometry y="304.5" width="50" height="60" as="geometry" />
        </mxCell>
        <mxCell id="-ht__sh_S9YxHwO8VVMU-1361" value="&lt;span style=&quot;color: rgb(0 , 0 , 0) ; font-family: &amp;#34;helvetica&amp;#34; ; font-size: 20px ; font-style: normal ; letter-spacing: normal ; text-align: center ; text-indent: 0px ; text-transform: none ; word-spacing: 0px ; background-color: rgb(248 , 249 , 250) ; display: inline ; float: none&quot;&gt;项目监控&lt;/span&gt;" style="text;whiteSpace=wrap;html=1;fontSize=20;fontStyle=1" vertex="1" parent="1">
          <mxGeometry y="510" width="50" height="60" as="geometry" />
        </mxCell>
        <mxCell id="-ht__sh_S9YxHwO8VVMU-1362" value="&lt;span style=&quot;color: rgb(0 , 0 , 0) ; font-family: &amp;#34;helvetica&amp;#34; ; font-size: 20px ; font-style: normal ; letter-spacing: normal ; text-align: center ; text-indent: 0px ; text-transform: none ; word-spacing: 0px ; background-color: rgb(248 , 249 , 250) ; display: inline ; float: none&quot;&gt;测量分析&lt;/span&gt;" style="text;whiteSpace=wrap;html=1;fontSize=20;fontStyle=1" vertex="1" parent="1">
          <mxGeometry y="710" width="50" height="60" as="geometry" />
        </mxCell>
        <mxCell id="-ht__sh_S9YxHwO8VVMU-1363" value="&lt;span style=&quot;color: rgb(0 , 0 , 0) ; font-family: &amp;#34;helvetica&amp;#34; ; font-size: 20px ; font-style: normal ; letter-spacing: normal ; text-align: center ; text-indent: 0px ; text-transform: none ; word-spacing: 0px ; background-color: rgb(248 , 249 , 250) ; display: inline ; float: none&quot;&gt;配置管理&lt;/span&gt;" style="text;whiteSpace=wrap;html=1;fontSize=20;fontStyle=1" vertex="1" parent="1">
          <mxGeometry y="910" width="50" height="60" as="geometry" />
        </mxCell>
        <mxCell id="-ht__sh_S9YxHwO8VVMU-1364" value="&lt;span style=&quot;color: rgb(0 , 0 , 0) ; font-family: &amp;#34;helvetica&amp;#34; ; font-size: 20px ; font-style: normal ; letter-spacing: normal ; text-align: center ; text-indent: 0px ; text-transform: none ; word-spacing: 0px ; background-color: rgb(248 , 249 , 250) ; display: inline ; float: none&quot;&gt;质量管理&lt;/span&gt;" style="text;whiteSpace=wrap;html=1;fontSize=20;fontStyle=1" vertex="1" parent="1">
          <mxGeometry y="1080" width="50" height="60" as="geometry" />
        </mxCell>
      </root>
    </mxGraphModel>
  </diagram>
</mxfile>
